<svg width="38" height="40" viewBox="0 0 38 40" fill="none" xmlns="http://www.w3.org/2000/svg">
<path fill-rule="evenodd" clip-rule="evenodd" d="M14.8019 8.0131C14.693 7.36701 14.611 6.72825 14.558 6.08941C14.4781 5.13116 14.5275 4.16558 14.4992 3.20733C14.4869 2.8008 14.4382 1.74093 14.4578 1.58848C14.6357 0.259999 15.7079 0.0567088 16.0215 0.0204114C16.1732 -0.00136698 17.7311 -0.175517 18.0672 1.55224C18.4796 3.66475 18.6117 5.79174 18.4658 7.87521C18.8062 9.64653 19.3885 11.4105 20.1572 13.0076C23.2164 19.3597 29.0457 19.9767 35.3615 19.9187C36.3328 19.9041 37.1393 20.6664 37.1902 21.6319C37.241 22.6047 36.5179 23.4468 35.551 23.5339C32.0207 23.8751 25.7572 26.7063 23.5917 29.6536C23.1387 30.2707 22.8752 31.7589 22.5267 33.2181C22.0403 35.2435 21.4618 37.2471 20.8135 38.0891C20.7162 38.2198 19.5336 39.5556 19.1808 39.7516C18.3329 40.2162 17.6542 39.9476 17.2687 39.7007C16.8832 39.4539 16.4469 38.9675 16.2727 38.1617C16.0905 37.3196 16.2444 35.5918 16.2161 35.2216C16.113 33.8786 15.8444 31.2434 15.2963 28.9785C15.0008 27.7589 14.6858 26.6337 14.1645 26.0747C12.235 24.0057 9.14969 24.3107 6.55152 24.6519C6.25316 24.6882 5.9548 24.7317 5.65716 24.768C4.59945 25.0802 3.47638 25.3124 2.28946 25.4504C0.497094 25.6609 0.20238 24.013 0.186409 23.9041C0.153015 23.6645 0.0288651 22.4305 1.37985 21.9368C1.52722 21.886 2.6147 21.6464 3.03357 21.552C3.61724 21.4214 4.20742 21.3198 4.79979 21.2254C10.9188 19.3234 14.2422 13.9804 14.8019 8.0131ZM16.9021 14.612C19.212 19.3888 22.7176 21.6972 26.873 22.7426H26.8723C24.2777 24.1001 21.9176 25.7989 20.6668 27.5049C20.1921 28.151 19.7565 29.4504 19.3638 30.9095C19.1511 29.552 18.8636 28.1073 18.4839 26.8732C18.052 25.4649 17.4705 24.2962 16.8215 23.5993C15.5685 22.2563 13.9961 21.5085 12.3054 21.1383C14.3293 19.3452 15.864 17.1093 16.9021 14.612Z" fill="#333333"/>
</svg>
